<?xml version="1.0" encoding="utf-8"?>
<!-- Generator: Adobe Illustrator 28.2.0, SVG Export Plug-In . SVG Version: 6.00 Build 0)  -->
<svg version="1.1" id="Layer_1" xmlns="http://www.w3.org/2000/svg" xmlns:xlink="http://www.w3.org/1999/xlink" x="0px" y="0px"
	 viewBox="0 0 348.5 60.3" style="enable-background:new 0 0 348.5 60.3;" xml:space="preserve">
<style type="text/css">
	.st0{clip-path:url(#SVGID_00000101079948918123774890000009050121853346743173_);}
	.st1{fill:#6699FF;}
	.st2{fill:#FFFFFF;}
</style>
<g>
	<defs>
		<rect id="SVGID_1_" x="30.5" y="19.5" width="55" height="28"/>
	</defs>
	<clipPath id="SVGID_00000124884410475832388530000013204840754742139014_">
		<use xlink:href="#SVGID_1_"  style="overflow:visible;"/>
	</clipPath>
	<g style="clip-path:url(#SVGID_00000124884410475832388530000013204840754742139014_);">
		<path class="st1" d="M35.7,33.3c0-4.7,3.8-8.6,8.6-8.6h11.1v-5.3H44.3c-7.6,0-13.8,6.2-13.8,13.8s6.2,13.8,13.8,13.8h11.1v-5.3
			H44.3C39.6,41.9,35.7,38.1,35.7,33.3z M47.1,36.1h22.1v-5.5H47.1V36.1z M72,19.5H60.9v5.3H72c4.7,0,8.6,3.8,8.6,8.6
			c0,4.7-3.8,8.6-8.6,8.6H60.9v5.3H72c7.6,0,13.8-6.2,13.8-13.8S79.6,19.5,72,19.5z"/>
	</g>
</g>
<g>
	<g transform="translate(178.730808, 198.749987)">
		<g>
			<path class="st1" d="M-7.2-179.5c-3.2,0-6,1.2-8.2,3.2v-2.7h-6v40.5h6v-17.9c2.2,2,4.9,3.2,8.2,3.2c7.2,0,12.9-5.8,12.9-13.2
				C5.7-173.7,0-179.5-7.2-179.5z M-7.9-158.7c-4.2,0-7.6-3.4-7.6-7.6c0-4.2,3.4-7.6,7.6-7.6s7.6,3.4,7.6,7.6
				C-0.3-162.1-3.7-158.7-7.9-158.7z"/>
		</g>
	</g>
</g>
<g>
	<g transform="translate(203.94816, 198.749987)">
		<g>
			<path class="st1" d="M-1.1-153.2c7.9,0,13.6-5.8,13.6-13.2c0-7.4-5.8-13.2-13.6-13.2s-13.6,5.8-13.6,13.2
				C-14.7-158.9-9-153.2-1.1-153.2z M-1.1-158.7c-4.3,0-7.6-3.4-7.6-7.6c0-4.2,3.3-7.6,7.6-7.6c4.2,0,7.6,3.4,7.6,7.6
				C6.5-162.1,3.1-158.7-1.1-158.7z"/>
		</g>
	</g>
</g>
<g>
	<g transform="translate(227.978244, 198.749987)">
		<g>
			<path class="st1" d="M6.9-153.2c6.7,0,11.8-4.1,13.2-9.9h-6.3c-1.2,2.6-3.8,4.4-6.9,4.4c-4.2,0-7.6-3.3-7.6-7.6
				c0-4.3,3.4-7.6,7.6-7.6c3.1,0,5.7,1.8,6.9,4.4h6.3c-1.4-5.8-6.5-9.9-13.2-9.9c-7.9,0-13.6,5.8-13.6,13.2
				C-6.7-158.9-1-153.2,6.9-153.2z"/>
		</g>
	</g>
</g>
<g>
	<g transform="translate(250.963552, 198.749987)">
		<g>
			<path class="st1" d="M27.7-153.7l-12.4-13.9L26.7-179h-7.5L9-168.9v-29.9h-6v45.1h6v-13l10.8,13H27.7z"/>
		</g>
	</g>
</g>
<g>
	<g transform="translate(272.144219, 198.749987)">
		<g>
			<path class="st1" d="M34.9-166.5c-0.1-7.6-5.7-13-13.4-13c-7.7,0-13.6,5.6-13.6,13.2s5.8,13.2,13.6,13.2c6.5,0,11.4-3.9,12.9-9.4
				h-6c-1.1,2.7-3.6,4.4-6.8,4.4c-4.2,0-7.2-3-7.5-7.2h20.8L34.9-166.5z M21.6-174.4c3.3,0,5.6,1.8,6.7,4.8H14.6
				C15.7-172.5,18.2-174.4,21.6-174.4z"/>
		</g>
	</g>
</g>
<g>
	<g transform="translate(295.794383, 198.749987)">
		<g>
			<path class="st1" d="M31.1-173.9v-5.1h-6.4v-10.4h-6v10.4h-4.2v5.1h4.2v12.4c0,4.7,4,8.4,8.6,8.4c1.5,0,3-0.4,3.7-0.8v-4.6H28
				c-1.9,0-3.4-1.4-3.4-3.6v-11.7H31.1z"/>
		</g>
	</g>
</g>
<g>
	<g transform="translate(310.231436, 198.749987)">
		<g>
			<path class="st1" d="M29.6-153.2c5.1,0,8.7-3.2,8.7-7.8c0-4.8-4.1-6.7-7.5-8.1c-2.5-1-3.7-1.5-3.7-3.1c0-1.5,1-2.3,2.7-2.3
				c1.6,0,3.1,0.8,3.8,1.9l3.8-3.1c-1.3-2.2-4.6-3.9-8-3.9c-4.8,0-8.3,3.2-8.3,7.7c0,4.5,3.7,6.4,7.5,7.8c2.7,1.1,3.9,1.8,3.9,3.2
				c0,1.6-1.4,2.5-3.2,2.5c-1.8,0-3.9-0.9-4.6-2.8l-4.9,2.2C21.1-155.5,25.4-153.2,29.6-153.2z"/>
		</g>
	</g>
</g>
<g>
	<g transform="translate(62.032203, 198.749987)">
		<g>
			<path class="st2" d="M-48.4-153.2c6.7,0,11.8-4.1,13.2-9.9h-6.3c-1.2,2.6-3.8,4.4-6.9,4.4c-4.2,0-7.6-3.3-7.6-7.6
				c0-4.3,3.4-7.6,7.6-7.6c3.1,0,5.7,1.8,6.9,4.4h6.3c-1.4-5.8-6.5-9.9-13.2-9.9c-7.9,0-13.6,5.8-13.6,13.2
				C-62-158.9-56.3-153.2-48.4-153.2z"/>
		</g>
	</g>
</g>
<g>
	<g transform="translate(129.863624, 198.749987)">
		<g>
			<path class="st2" d="M-18.4-198.7v22.4c-2.2-2-4.9-3.2-8.2-3.2c-7.2,0-12.9,5.8-12.9,13.2c0,7.3,5.7,13.2,12.9,13.2
				c3.2,0,6-1.2,8.2-3.2v2.7h6v-45.1H-18.4z M-25.8-158.7c-4.2,0-7.6-3.4-7.6-7.6c0-4.2,3.4-7.6,7.6-7.6c4.2,0,7.6,3.4,7.6,7.6
				C-18.2-162.1-21.6-158.7-25.8-158.7z"/>
		</g>
	</g>
</g>
<g>
	<g transform="translate(155.080976, 198.749987)">
		<g>
			<path class="st2" d="M-4.1-166.5c-0.1-7.6-5.7-13-13.4-13c-7.7,0-13.6,5.6-13.6,13.2s5.8,13.2,13.6,13.2c6.5,0,11.4-3.9,12.9-9.4
				h-6c-1.1,2.7-3.6,4.4-6.8,4.4c-4.2,0-7.2-3-7.5-7.2h20.8L-4.1-166.5z M-17.4-174.4c3.3,0,5.6,1.8,6.7,4.8h-13.7
				C-23.3-172.5-20.8-174.4-17.4-174.4z"/>
		</g>
	</g>
</g>
</svg>
