<svg xmlns="http://www.w3.org/2000/svg" xmlns:xlink="http://www.w3.org/1999/xlink" width="500" zoomAndPan="magnify" viewBox="0 0 375 60" height="80" preserveAspectRatio="xMidYMid meet" version="1.0"><defs><g/><clipPath id="4a6a8bd5d8"><path d="M 0 5.132812 L 47.25 5.132812 L 47.25 53.882812 L 0 53.882812 Z M 0 5.132812 " clip-rule="nonzero"/></clipPath><clipPath id="bc0b3a107f"><path d="M 7 5.132812 L 24 5.132812 L 24 30 L 7 30 Z M 7 5.132812 " clip-rule="nonzero"/></clipPath><clipPath id="b075c9aa97"><path d="M 23.625 22.378906 C 23.066406 21.820312 22.570312 21.214844 22.128906 20.554688 C 21.691406 19.898438 21.320312 19.207031 21.015625 18.476562 C 20.714844 17.746094 20.484375 16.996094 20.328125 16.21875 C 20.171875 15.445312 20.09375 14.660156 20.09375 13.871094 C 20.089844 13.082031 20.164062 12.296875 20.316406 11.523438 C 20.464844 10.746094 20.691406 9.992188 20.988281 9.261719 C 21.289062 8.53125 21.65625 7.832031 22.089844 7.175781 C 22.523438 6.515625 23.019531 5.902344 23.574219 5.339844 L 7.847656 20.996094 L 16.378906 29.542969 Z M 23.625 22.378906 " clip-rule="nonzero"/></clipPath><linearGradient x1="42.625498" gradientTransform="matrix(4.732269, 0, 0, 4.740791, -173.87091, -123.16243)" y1="27.997504" x2="38.405997" gradientUnits="userSpaceOnUse" y2="32.217001" id="99b21034a5"><stop stop-opacity="1" stop-color="rgb(0%, 32.199097%, 79.998779%)" offset="0"/><stop stop-opacity="1" stop-color="rgb(0%, 32.199097%, 79.998779%)" offset="0.25"/><stop stop-opacity="1" stop-color="rgb(0%, 32.199097%, 79.998779%)" offset="0.3125"/><stop stop-opacity="1" stop-color="rgb(0%, 32.199097%, 79.998779%)" offset="0.34375"/><stop stop-opacity="1" stop-color="rgb(0%, 32.199097%, 79.998779%)" offset="0.359375"/><stop stop-opacity="1" stop-color="rgb(0.0305176%, 32.240295%, 80.041504%)" offset="0.367188"/><stop stop-opacity="1" stop-color="rgb(0.202942%, 32.467651%, 80.273438%)" offset="0.375"/><stop stop-opacity="1" stop-color="rgb(0.486755%, 32.841492%, 80.653381%)" offset="0.382813"/><stop stop-opacity="1" stop-color="rgb(0.770569%, 33.213806%, 81.033325%)" offset="0.390625"/><stop stop-opacity="1" stop-color="rgb(1.054382%, 33.586121%, 81.414795%)" offset="0.395071"/><stop stop-opacity="1" stop-color="rgb(1.196289%, 33.772278%, 81.60553%)" offset="0.398438"/><stop stop-opacity="1" stop-color="rgb(1.33667%, 33.958435%, 81.794739%)" offset="0.40625"/><stop stop-opacity="1" stop-color="rgb(1.620483%, 34.332275%, 82.174683%)" offset="0.414063"/><stop stop-opacity="1" stop-color="rgb(1.904297%, 34.70459%, 82.556152%)" offset="0.421875"/><stop stop-opacity="1" stop-color="rgb(2.186584%, 35.076904%, 82.936096%)" offset="0.429688"/><stop stop-opacity="1" stop-color="rgb(2.470398%, 35.450745%, 83.31604%)" offset="0.4375"/><stop stop-opacity="1" stop-color="rgb(2.754211%, 35.823059%, 83.695984%)" offset="0.445312"/><stop stop-opacity="1" stop-color="rgb(3.036499%, 36.195374%, 84.077454%)" offset="0.453125"/><stop stop-opacity="1" stop-color="rgb(3.320312%, 36.567688%, 84.457397%)" offset="0.460938"/><stop stop-opacity="1" stop-color="rgb(3.604126%, 36.941528%, 84.837341%)" offset="0.46875"/><stop stop-opacity="1" stop-color="rgb(3.887939%, 37.313843%, 85.217285%)" offset="0.476562"/><stop stop-opacity="1" stop-color="rgb(4.170227%, 37.686157%, 85.598755%)" offset="0.484375"/><stop stop-opacity="1" stop-color="rgb(4.454041%, 38.058472%, 85.978699%)" offset="0.492188"/><stop stop-opacity="1" stop-color="rgb(4.737854%, 38.432312%, 86.358643%)" offset="0.5"/><stop stop-opacity="1" stop-color="rgb(5.020142%, 38.804626%, 86.738586%)" offset="0.507813"/><stop stop-opacity="1" stop-color="rgb(5.303955%, 39.176941%, 87.120056%)" offset="0.515625"/><stop stop-opacity="1" stop-color="rgb(5.587769%, 39.550781%, 87.5%)" offset="0.523438"/><stop stop-opacity="1" stop-color="rgb(5.870056%, 39.923096%, 87.879944%)" offset="0.53125"/><stop stop-opacity="1" stop-color="rgb(6.15387%, 40.29541%, 88.259888%)" offset="0.539062"/><stop stop-opacity="1" stop-color="rgb(6.437683%, 40.667725%, 88.641357%)" offset="0.546875"/><stop stop-opacity="1" stop-color="rgb(6.719971%, 41.041565%, 89.021301%)" offset="0.554688"/><stop stop-opacity="1" stop-color="rgb(7.003784%, 41.413879%, 89.401245%)" offset="0.5625"/><stop stop-opacity="1" stop-color="rgb(7.287598%, 41.786194%, 89.781189%)" offset="0.570312"/><stop stop-opacity="1" stop-color="rgb(7.571411%, 42.158508%, 90.162659%)" offset="0.578125"/><stop stop-opacity="1" stop-color="rgb(7.853699%, 42.532349%, 90.542603%)" offset="0.585938"/><stop stop-opacity="1" stop-color="rgb(8.137512%, 42.904663%, 90.922546%)" offset="0.59375"/><stop stop-opacity="1" stop-color="rgb(8.421326%, 43.276978%, 91.30249%)" offset="0.601562"/><stop stop-opacity="1" stop-color="rgb(8.703613%, 43.649292%, 91.68396%)" offset="0.604929"/><stop stop-opacity="1" stop-color="rgb(8.84552%, 43.836975%, 91.874695%)" offset="0.609375"/><stop stop-opacity="1" stop-color="rgb(8.987427%, 44.023132%, 92.063904%)" offset="0.617188"/><stop stop-opacity="1" stop-color="rgb(9.27124%, 44.395447%, 92.443848%)" offset="0.625"/><stop stop-opacity="1" stop-color="rgb(9.553528%, 44.767761%, 92.823792%)" offset="0.632812"/><stop stop-opacity="1" stop-color="rgb(9.837341%, 45.141602%, 93.205261%)" offset="0.640625"/><stop stop-opacity="1" stop-color="rgb(10.121155%, 45.513916%, 93.585205%)" offset="0.648438"/><stop stop-opacity="1" stop-color="rgb(10.403442%, 45.88623%, 93.965149%)" offset="0.65625"/><stop stop-opacity="1" stop-color="rgb(10.687256%, 46.258545%, 94.345093%)" offset="0.664063"/><stop stop-opacity="1" stop-color="rgb(10.971069%, 46.632385%, 94.726562%)" offset="0.671875"/><stop stop-opacity="1" stop-color="rgb(11.254883%, 47.0047%, 95.106506%)" offset="0.679688"/><stop stop-opacity="1" stop-color="rgb(11.53717%, 47.377014%, 95.48645%)" offset="0.6875"/><stop stop-opacity="1" stop-color="rgb(11.820984%, 47.749329%, 95.866394%)" offset="0.695312"/><stop stop-opacity="1" stop-color="rgb(12.104797%, 48.123169%, 96.247864%)" offset="0.703125"/><stop stop-opacity="1" stop-color="rgb(12.387085%, 48.495483%, 96.627808%)" offset="0.710938"/><stop stop-opacity="1" stop-color="rgb(12.670898%, 48.867798%, 97.007751%)" offset="0.71875"/><stop stop-opacity="1" stop-color="rgb(12.954712%, 49.240112%, 97.387695%)" offset="0.726562"/><stop stop-opacity="1" stop-color="rgb(13.237%, 49.613953%, 97.769165%)" offset="0.734375"/><stop stop-opacity="1" stop-color="rgb(13.520813%, 49.986267%, 98.149109%)" offset="0.742188"/><stop stop-opacity="1" stop-color="rgb(13.804626%, 50.358582%, 98.529053%)" offset="0.75"/><stop stop-opacity="1" stop-color="rgb(14.086914%, 50.732422%, 98.908997%)" offset="0.757813"/><stop stop-opacity="1" stop-color="rgb(14.370728%, 51.104736%, 99.290466%)" offset="0.765625"/><stop stop-opacity="1" stop-color="rgb(14.654541%, 51.477051%, 99.67041%)" offset="0.773438"/><stop stop-opacity="1" stop-color="rgb(14.846802%, 51.730347%, 99.92981%)" offset="0.78125"/><stop stop-opacity="1" stop-color="rgb(14.898682%, 51.799011%, 100%)" offset="0.8125"/><stop stop-opacity="1" stop-color="rgb(14.898682%, 51.799011%, 100%)" offset="0.875"/><stop stop-opacity="1" stop-color="rgb(14.898682%, 51.799011%, 100%)" offset="1"/></linearGradient><clipPath id="4d00ab66fc"><path d="M 23 29 L 40 29 L 40 53.882812 L 23 53.882812 Z M 23 29 " clip-rule="nonzero"/></clipPath><clipPath id="f826ed3659"><path d="M 30.808594 29.492188 L 23.625 36.6875 C 24.1875 37.25 24.6875 37.859375 25.125 38.519531 C 25.566406 39.179688 25.9375 39.875 26.242188 40.609375 C 26.546875 41.34375 26.773438 42.097656 26.929688 42.875 C 27.085938 43.65625 27.160156 44.441406 27.160156 45.234375 C 27.160156 46.027344 27.085938 46.816406 26.929688 47.59375 C 26.773438 48.371094 26.546875 49.128906 26.242188 49.863281 C 25.9375 50.59375 25.566406 51.292969 25.125 51.953125 C 24.6875 52.609375 24.1875 53.222656 23.625 53.78125 L 39.335938 38.042969 Z M 30.808594 29.492188 " clip-rule="nonzero"/></clipPath><linearGradient x1="40.832494" gradientTransform="matrix(4.732269, 0, 0, 4.740791, -173.87091, -123.16243)" y1="36.422501" x2="45.054497" gradientUnits="userSpaceOnUse" y2="32.200506" id="5aef4a743e"><stop stop-opacity="1" stop-color="rgb(0%, 32.199097%, 79.998779%)" offset="0"/><stop stop-opacity="1" stop-color="rgb(0%, 32.199097%, 79.998779%)" offset="0.25"/><stop stop-opacity="1" stop-color="rgb(0.0549316%, 32.272339%, 80.073547%)" offset="0.375"/><stop stop-opacity="1" stop-color="rgb(0.253296%, 32.531738%, 80.33905%)" offset="0.382812"/><stop stop-opacity="1" stop-color="rgb(0.537109%, 32.905579%, 80.72052%)" offset="0.390625"/><stop stop-opacity="1" stop-color="rgb(0.820923%, 33.279419%, 81.10199%)" offset="0.393179"/><stop stop-opacity="1" stop-color="rgb(0.96283%, 33.467102%, 81.292725%)" offset="0.398437"/><stop stop-opacity="1" stop-color="rgb(1.104736%, 33.653259%, 81.483459%)" offset="0.40625"/><stop stop-opacity="1" stop-color="rgb(1.38855%, 34.0271%, 81.864929%)" offset="0.414062"/><stop stop-opacity="1" stop-color="rgb(1.672363%, 34.40094%, 82.246399%)" offset="0.421875"/><stop stop-opacity="1" stop-color="rgb(1.957703%, 34.773254%, 82.626343%)" offset="0.429687"/><stop stop-opacity="1" stop-color="rgb(2.241516%, 35.147095%, 83.007812%)" offset="0.4375"/><stop stop-opacity="1" stop-color="rgb(2.52533%, 35.520935%, 83.389282%)" offset="0.445312"/><stop stop-opacity="1" stop-color="rgb(2.809143%, 35.894775%, 83.770752%)" offset="0.453125"/><stop stop-opacity="1" stop-color="rgb(3.092957%, 36.268616%, 84.152222%)" offset="0.460937"/><stop stop-opacity="1" stop-color="rgb(3.37677%, 36.642456%, 84.533691%)" offset="0.46875"/><stop stop-opacity="1" stop-color="rgb(3.660583%, 37.016296%, 84.915161%)" offset="0.476562"/><stop stop-opacity="1" stop-color="rgb(3.945923%, 37.390137%, 85.296631%)" offset="0.484375"/><stop stop-opacity="1" stop-color="rgb(4.229736%, 37.762451%, 85.676575%)" offset="0.492187"/><stop stop-opacity="1" stop-color="rgb(4.51355%, 38.136292%, 86.058044%)" offset="0.5"/><stop stop-opacity="1" stop-color="rgb(4.797363%, 38.510132%, 86.439514%)" offset="0.507812"/><stop stop-opacity="1" stop-color="rgb(5.081177%, 38.883972%, 86.820984%)" offset="0.515625"/><stop stop-opacity="1" stop-color="rgb(5.36499%, 39.257812%, 87.202454%)" offset="0.523437"/><stop stop-opacity="1" stop-color="rgb(5.65033%, 39.631653%, 87.583923%)" offset="0.53125"/><stop stop-opacity="1" stop-color="rgb(5.934143%, 40.005493%, 87.965393%)" offset="0.539062"/><stop stop-opacity="1" stop-color="rgb(6.217957%, 40.379333%, 88.346863%)" offset="0.546875"/><stop stop-opacity="1" stop-color="rgb(6.50177%, 40.753174%, 88.726807%)" offset="0.554687"/><stop stop-opacity="1" stop-color="rgb(6.785583%, 41.125488%, 89.108276%)" offset="0.5625"/><stop stop-opacity="1" stop-color="rgb(7.069397%, 41.499329%, 89.489746%)" offset="0.570312"/><stop stop-opacity="1" stop-color="rgb(7.35321%, 41.873169%, 89.871216%)" offset="0.578125"/><stop stop-opacity="1" stop-color="rgb(7.63855%, 42.247009%, 90.252686%)" offset="0.585937"/><stop stop-opacity="1" stop-color="rgb(7.922363%, 42.62085%, 90.634155%)" offset="0.59375"/><stop stop-opacity="1" stop-color="rgb(8.206177%, 42.99469%, 91.015625%)" offset="0.601562"/><stop stop-opacity="1" stop-color="rgb(8.48999%, 43.36853%, 91.397095%)" offset="0.606821"/><stop stop-opacity="1" stop-color="rgb(8.631897%, 43.556213%, 91.58783%)" offset="0.609375"/><stop stop-opacity="1" stop-color="rgb(8.773804%, 43.742371%, 91.777039%)" offset="0.617187"/><stop stop-opacity="1" stop-color="rgb(9.057617%, 44.114685%, 92.158508%)" offset="0.625"/><stop stop-opacity="1" stop-color="rgb(9.342957%, 44.488525%, 92.539978%)" offset="0.632812"/><stop stop-opacity="1" stop-color="rgb(9.62677%, 44.862366%, 92.921448%)" offset="0.640625"/><stop stop-opacity="1" stop-color="rgb(9.910583%, 45.236206%, 93.302917%)" offset="0.648437"/><stop stop-opacity="1" stop-color="rgb(10.194397%, 45.610046%, 93.684387%)" offset="0.65625"/><stop stop-opacity="1" stop-color="rgb(10.47821%, 45.983887%, 94.065857%)" offset="0.664062"/><stop stop-opacity="1" stop-color="rgb(10.762024%, 46.357727%, 94.447327%)" offset="0.671875"/><stop stop-opacity="1" stop-color="rgb(11.047363%, 46.731567%, 94.827271%)" offset="0.679687"/><stop stop-opacity="1" stop-color="rgb(11.331177%, 47.103882%, 95.20874%)" offset="0.6875"/><stop stop-opacity="1" stop-color="rgb(11.61499%, 47.477722%, 95.59021%)" offset="0.695312"/><stop stop-opacity="1" stop-color="rgb(11.898804%, 47.851562%, 95.97168%)" offset="0.703125"/><stop stop-opacity="1" stop-color="rgb(12.182617%, 48.225403%, 96.353149%)" offset="0.710937"/><stop stop-opacity="1" stop-color="rgb(12.466431%, 48.599243%, 96.734619%)" offset="0.71875"/><stop stop-opacity="1" stop-color="rgb(12.750244%, 48.973083%, 97.116089%)" offset="0.726562"/><stop stop-opacity="1" stop-color="rgb(13.035583%, 49.346924%, 97.497559%)" offset="0.734375"/><stop stop-opacity="1" stop-color="rgb(13.319397%, 49.720764%, 97.877502%)" offset="0.742187"/><stop stop-opacity="1" stop-color="rgb(13.60321%, 50.093079%, 98.258972%)" offset="0.75"/><stop stop-opacity="1" stop-color="rgb(13.887024%, 50.466919%, 98.640442%)" offset="0.757812"/><stop stop-opacity="1" stop-color="rgb(14.170837%, 50.840759%, 99.021912%)" offset="0.765625"/><stop stop-opacity="1" stop-color="rgb(14.454651%, 51.2146%, 99.403381%)" offset="0.773437"/><stop stop-opacity="1" stop-color="rgb(14.73999%, 51.58844%, 99.784851%)" offset="0.78125"/><stop stop-opacity="1" stop-color="rgb(14.889526%, 51.786804%, 99.987793%)" offset="0.8125"/><stop stop-opacity="1" stop-color="rgb(14.898682%, 51.799011%, 100%)" offset="0.875"/><stop stop-opacity="1" stop-color="rgb(14.898682%, 51.799011%, 100%)" offset="1"/></linearGradient></defs><rect x="-37.5" width="450" fill="#ffffff" y="-6" height="72" fill-opacity="1"/><rect x="-37.5" width="450" fill="#ffffff" y="-6" height="72" fill-opacity="1"/><g fill="#2684ff" fill-opacity="1"><g transform="translate(47.445012, 50.24872)"><g><path d="M 41.96875 -41.65625 L 35.902344 -41.65625 C 33.816406 -41.65625 33.5 -40.265625 33.058594 -39.503906 L 24.335938 -23.957031 L 15.675781 -39.503906 C 15.171875 -40.265625 14.917969 -41.65625 12.769531 -41.65625 L 6.511719 -41.65625 C 5.058594 -41.65625 4.675781 -40.960938 4.675781 -39.820312 L 4.675781 -1.832031 C 4.675781 -0.378906 5.371094 0 6.511719 0 L 12.769531 0 C 13.90625 0 14.601562 -0.378906 14.601562 -1.832031 L 14.601562 -23.261719 L 20.984375 -12.199219 C 21.300781 -11.695312 21.808594 -10.871094 22.753906 -10.871094 L 25.914062 -10.871094 C 26.863281 -10.871094 27.433594 -11.695312 27.75 -12.199219 L 34.070312 -23.261719 L 34.070312 -1.832031 C 34.070312 -0.378906 34.765625 0 35.902344 0 L 41.96875 0 C 43.109375 0 43.804688 -0.378906 43.804688 -1.832031 L 43.804688 -39.820312 C 43.804688 -40.960938 43.425781 -41.65625 41.96875 -41.65625 Z M 41.96875 -41.65625 "/></g></g></g><g fill="#2684ff" fill-opacity="1"><g transform="translate(90.108718, 50.24872)"><g><path d="M 34.828125 -8.847656 L 14.664062 -8.847656 L 14.664062 -17.191406 L 31.605469 -17.191406 C 33.058594 -17.191406 33.4375 -17.886719 33.4375 -19.027344 L 33.4375 -23.957031 C 33.4375 -25.09375 33.058594 -25.789062 31.605469 -25.789062 L 14.664062 -25.789062 L 14.664062 -32.679688 L 33.753906 -32.679688 C 35.207031 -32.679688 35.585938 -33.375 35.585938 -34.511719 L 35.585938 -39.757812 C 35.585938 -40.894531 35.207031 -41.589844 33.753906 -41.589844 L 6.511719 -41.589844 C 5.058594 -41.589844 4.675781 -40.894531 4.675781 -39.757812 L 4.675781 -1.832031 C 4.675781 -0.695312 5.058594 0 6.511719 0 L 34.828125 0 C 36.28125 0 36.660156 -0.695312 36.660156 -1.832031 L 36.660156 -7.015625 C 36.660156 -8.152344 36.28125 -8.847656 34.828125 -8.847656 Z M 34.828125 -8.847656 "/></g></g></g><g fill="#2684ff" fill-opacity="1"><g transform="translate(123.923603, 50.24872)"><g><path d="M 41.96875 -41.65625 L 35.902344 -41.65625 C 33.816406 -41.65625 33.5 -40.265625 33.058594 -39.503906 L 24.335938 -23.957031 L 15.675781 -39.503906 C 15.171875 -40.265625 14.917969 -41.65625 12.769531 -41.65625 L 6.511719 -41.65625 C 5.058594 -41.65625 4.675781 -40.960938 4.675781 -39.820312 L 4.675781 -1.832031 C 4.675781 -0.378906 5.371094 0 6.511719 0 L 12.769531 0 C 13.90625 0 14.601562 -0.378906 14.601562 -1.832031 L 14.601562 -23.261719 L 20.984375 -12.199219 C 21.300781 -11.695312 21.808594 -10.871094 22.753906 -10.871094 L 25.914062 -10.871094 C 26.863281 -10.871094 27.433594 -11.695312 27.75 -12.199219 L 34.070312 -23.261719 L 34.070312 -1.832031 C 34.070312 -0.378906 34.765625 0 35.902344 0 L 41.96875 0 C 43.109375 0 43.804688 -0.378906 43.804688 -1.832031 L 43.804688 -39.820312 C 43.804688 -40.960938 43.425781 -41.65625 41.96875 -41.65625 Z M 41.96875 -41.65625 "/></g></g></g><g fill="#2684ff" fill-opacity="1"><g transform="translate(166.587306, 50.24872)"><g><path d="M 37.355469 -13.335938 L 37.355469 -28.253906 C 37.355469 -38.242188 27.875 -42.539062 20.351562 -42.539062 C 12.832031 -42.539062 3.476562 -38.242188 3.476562 -28.253906 L 3.476562 -13.335938 C 3.476562 -3.351562 12.832031 0.949219 20.351562 0.949219 C 27.875 0.949219 37.355469 -3.351562 37.355469 -13.335938 Z M 27.433594 -27.371094 L 27.433594 -14.222656 C 27.433594 -10.175781 24.523438 -7.835938 20.351562 -7.835938 C 16.246094 -7.835938 13.335938 -10.175781 13.335938 -14.222656 L 13.335938 -27.371094 C 13.335938 -31.414062 16.246094 -33.753906 20.351562 -33.753906 C 24.523438 -33.753906 27.433594 -31.414062 27.433594 -27.371094 Z M 27.433594 -27.371094 "/></g></g></g><g fill="#2684ff" fill-opacity="1"><g transform="translate(201.5399, 50.24872)"><g><path d="M 36.722656 -12.324219 C 36.722656 -13.84375 36.21875 -14.476562 34.828125 -14.476562 L 28.632812 -14.476562 C 27.242188 -14.476562 27.117188 -13.464844 26.925781 -12.199219 C 26.421875 -9.164062 23.703125 -7.902344 20.289062 -7.902344 C 16.117188 -7.902344 13.273438 -10.175781 13.273438 -14.222656 L 13.273438 -27.371094 C 13.273438 -31.351562 16.117188 -33.691406 20.289062 -33.691406 C 23.703125 -33.691406 25.472656 -32.742188 26.800781 -30.65625 C 27.304688 -29.898438 27.371094 -28.695312 28.695312 -28.695312 L 34.765625 -28.695312 C 36.21875 -28.695312 36.722656 -29.011719 36.722656 -30.53125 C 35.902344 -38.558594 28.128906 -42.539062 20.289062 -42.539062 C 12.769531 -42.539062 3.351562 -38.179688 3.351562 -28.253906 L 3.351562 -13.335938 C 3.351562 -3.414062 12.769531 0.949219 20.289062 0.949219 C 28.128906 0.949219 36.722656 -4.171875 36.722656 -12.324219 Z M 36.722656 -12.324219 "/></g></g></g><g fill="#2684ff" fill-opacity="1"><g transform="translate(235.670813, 50.24872)"><g><path d="M 38.746094 -2.023438 L 29.835938 -14.980469 C 33.753906 -16.308594 38.621094 -20.921875 38.621094 -27.558594 C 38.621094 -31.605469 37.292969 -35.207031 34.953125 -37.484375 C 32.300781 -40.136719 29.265625 -41.527344 22.375 -41.527344 L 6.445312 -41.527344 C 4.992188 -41.527344 4.675781 -40.832031 4.675781 -39.695312 L 4.675781 -1.832031 C 4.675781 -0.378906 5.308594 0 6.445312 0 L 12.703125 0 C 13.84375 0 14.539062 -0.378906 14.539062 -1.832031 L 14.539062 -32.679688 L 22.945312 -32.679688 C 26.230469 -32.679688 28.761719 -30.59375 28.761719 -27.304688 C 28.761719 -24.335938 25.851562 -22.1875 22.753906 -22.1875 L 21.492188 -22.1875 C 20.035156 -22.1875 19.65625 -21.492188 19.65625 -20.351562 L 19.65625 -15.296875 C 19.65625 -13.527344 19.785156 -12.832031 20.351562 -12.074219 L 27.179688 -1.894531 C 28.066406 -0.570312 28.824219 0 30.339844 0 L 37.796875 0 C 39 0 39.316406 -1.136719 38.746094 -2.023438 Z M 38.746094 -2.023438 "/></g></g></g><g fill="#2684ff" fill-opacity="1"><g transform="translate(271.950712, 50.24872)"><g><path d="M 40.453125 -1.769531 L 26.484375 -39.632812 C 25.914062 -40.960938 25.285156 -41.589844 23.894531 -41.589844 L 17.824219 -41.589844 C 16.433594 -41.589844 15.738281 -40.960938 15.234375 -39.632812 L 1.199219 -1.769531 C 0.886719 -1.011719 0.886719 0 2.277344 0 L 8.914062 0 C 10.304688 0 10.808594 -0.378906 11.3125 -1.894531 L 13.085938 -6.890625 L 28.570312 -6.890625 L 30.339844 -1.894531 C 30.84375 -0.378906 31.351562 0 32.742188 0 L 39.378906 0 C 40.769531 0 40.769531 -1.011719 40.453125 -1.769531 Z M 20.859375 -29.707031 L 25.597656 -15.738281 L 16.117188 -15.738281 Z M 20.859375 -29.707031 "/></g></g></g><g fill="#2684ff" fill-opacity="1"><g transform="translate(307.535364, 50.24872)"><g><path d="M 33.691406 -41.589844 L 6.511719 -41.589844 C 5.058594 -41.589844 4.675781 -40.894531 4.675781 -39.757812 L 4.675781 -1.832031 C 4.675781 -0.695312 5.058594 0 6.511719 0 L 12.769531 0 C 14.222656 0 14.601562 -0.253906 14.601562 -1.894531 L 14.601562 -16.6875 L 31.035156 -16.6875 C 32.488281 -16.6875 32.867188 -17.382812 32.867188 -18.519531 L 32.867188 -23.511719 C 32.867188 -24.652344 32.488281 -25.347656 31.035156 -25.347656 L 14.601562 -25.347656 L 14.601562 -32.742188 L 33.691406 -32.742188 C 35.144531 -32.742188 35.523438 -33.4375 35.523438 -34.574219 L 35.523438 -39.757812 C 35.523438 -40.894531 35.144531 -41.589844 33.691406 -41.589844 Z M 33.691406 -41.589844 "/></g></g></g><g fill="#2684ff" fill-opacity="1"><g transform="translate(339.770089, 50.24872)"><g><path d="M 32.804688 -41.589844 L 3.476562 -41.589844 C 2.023438 -41.589844 1.644531 -40.894531 1.644531 -39.757812 L 1.644531 -34.511719 C 1.644531 -33.375 2.023438 -32.679688 3.476562 -32.679688 L 13.210938 -32.679688 L 13.210938 -1.832031 C 13.210938 -0.378906 13.90625 0 15.042969 0 L 21.300781 0 C 22.4375 0 23.132812 -0.378906 23.132812 -1.832031 L 23.132812 -32.679688 L 32.804688 -32.679688 C 34.257812 -32.679688 34.636719 -33.375 34.636719 -34.511719 L 34.636719 -39.757812 C 34.636719 -40.894531 34.257812 -41.589844 32.804688 -41.589844 Z M 32.804688 -41.589844 "/></g></g></g><g clip-path="url(#4a6a8bd5d8)"><path fill="#2684ff" d="M 46.5 28.152344 L 23.625 5.238281 L 0.75 28.152344 C 0.570312 28.335938 0.433594 28.542969 0.335938 28.777344 C 0.238281 29.011719 0.191406 29.257812 0.191406 29.511719 C 0.191406 29.765625 0.238281 30.011719 0.335938 30.246094 C 0.433594 30.480469 0.570312 30.691406 0.75 30.871094 L 23.625 53.789062 L 46.5 30.871094 C 46.679688 30.691406 46.820312 30.484375 46.914062 30.246094 C 47.011719 30.011719 47.0625 29.765625 47.0625 29.511719 C 47.0625 29.257812 47.011719 29.011719 46.914062 28.777344 C 46.820312 28.542969 46.679688 28.335938 46.5 28.152344 Z M 23.625 36.6875 L 16.460938 29.511719 L 23.625 22.332031 L 30.789062 29.511719 Z M 23.625 36.6875 " fill-opacity="1" fill-rule="nonzero"/></g><g clip-path="url(#bc0b3a107f)"><g clip-path="url(#b075c9aa97)"><path fill="url(#99b21034a5)" d="M 7.847656 5.339844 L 7.847656 29.542969 L 23.625 29.542969 L 23.625 5.339844 Z M 7.847656 5.339844 " fill-rule="nonzero"/></g></g><g clip-path="url(#4d00ab66fc)"><g clip-path="url(#f826ed3659)"><path fill="url(#5aef4a743e)" d="M 23.625 29.492188 L 23.625 53.78125 L 39.335938 53.78125 L 39.335938 29.492188 Z M 23.625 29.492188 " fill-rule="nonzero"/></g></g></svg>