<?xml version="1.0" standalone="no"?>
<!DOCTYPE svg PUBLIC "-//W3C//DTD SVG 20010904//EN"
 "http://www.w3.org/TR/2001/REC-SVG-20010904/DTD/svg10.dtd">
<svg version="1.0" xmlns="http://www.w3.org/2000/svg"
 width="700.000000pt" height="700.000000pt" viewBox="0 0 700.000000 700.000000"
 preserveAspectRatio="xMidYMid meet">
<metadata>
Created by potrace 1.14, written by Peter Selinger 2001-2017
</metadata>
<g transform="translate(0.000000,700.000000) scale(0.100000,-0.100000)"
fill="#000000" stroke="none">
<path d="M0 3500 l0 -3500 3500 0 3500 0 0 3500 0 3500 -3500 0 -3500 0 0
-3500z m3280 886 l0 -204 -482 -5 c-543 -5 -548 -5 -692 -79 -61 -32 -101 -62
-166 -127 -140 -142 -195 -274 -195 -471 0 -197 58 -336 199 -475 93 -93 184
-145 302 -175 72 -19 112 -20 556 -20 l478 0 0 -211 0 -211 -502 5 c-426 4
-514 7 -578 22 -342 77 -609 282 -758 580 -48 95 -88 219 -103 318 -17 107 -6
344 20 439 123 451 500 769 961 812 19 1 243 4 498 4 l462 2 0 -204z m1530
180 c406 -94 720 -394 827 -791 25 -91 27 -116 27 -275 0 -156 -3 -185 -26
-271 -101 -374 -391 -669 -762 -774 -130 -37 -262 -45 -733 -45 l-423 0 0 210
0 210 478 0 c536 0 548 1 689 71 153 76 277 218 337 388 27 77 30 98 31 206 0
138 -21 223 -82 335 -53 96 -178 216 -279 268 -144 74 -149 74 -691 79 l-483
5 0 205 0 205 508 -5 c435 -3 518 -7 582 -21z m-440 -1066 l0 -220 -870 0
-870 0 0 220 0 220 870 0 870 0 0 -220z"/>
</g>
</svg>
